# xmcd
#
# Track frame offsets: 
#        150
#        13092
#        25143
#        35282
#        44788
#        54447
#        65225
#        79089
#        90905
#        102850
#        112305
#        122726
#        131090
#        139987
#        148611
#        158072
#        166169
#        176404
#        182532
#        192781
#
# Disc length: 2715 seconds
#
# Revision: 0
# Processed by: cddbd v1.5.2PL0 Copyright (c) Steve Scherf et al.
# Submitted via: ExactAudioCopyFreeDBPlugin 1.0
#
DISCID=150a9914
DTITLE=Johnny Cash - The Absolutely Essential 3CD Collection
DYEAR=2015
DGENRE=Country
TTITLE0=Folsom Prison Blues
TTITLE1=You're The Nearest Thing To Heaven
TTITLE2=All Over Again
TTITLE3=What Do I Care?
TTITLE4=It's Just About Time
TTITLE5=I Just Though You'd Like To Know
TTITLE6=Don't Take Your Guns To Town
TTITLE7=I Still Miss Someone
TTITLE8=Thanks A Lot
TTITLE9=Luther Played The Boogie
TTITLE10=Frankie's Man, Johnny
TTITLE11=You Dreamer You
TTITLE12=Katy Too
TTITLE13=I Forgot To Remember To Forget
TTITLE14=I Got Stripes
TTITLE15=Five Feet High And Rising
TTITLE16=Goodbye, Little Darlin' Goodbye
TTITLE17=You Tell Me
TTITLE18=Straight A's In Love
TTITLE19=I Love You Because
EXTD=
EXTT0=
EXTT1=
EXTT2=
EXTT3=
EXTT4=
EXTT5=
EXTT6=
EXTT7=
EXTT8=
EXTT9=
EXTT10=
EXTT11=
EXTT12=
EXTT13=
EXTT14=
EXTT15=
EXTT16=
EXTT17=
EXTT18=
EXTT19=
PLAYORDER=
